<svg height="1939pt" preserveAspectRatio="xMidYMid meet" viewBox="0 0 1434 1939" width="1434pt" xmlns="http://www.w3.org/2000/svg"><g transform="matrix(.1 0 0 -.1 0 1939)"><path d="m0 9695v-9695h7170 7170v9695 9695h-7170-7170zm11449 6789 1761-1766v-2497-2496l-1767-1767-1768-1768h-2495-2495l-1768 1768-1767 1767v2495 2496l1761 1767 1761 1767h2508 2508z"/><path d="m6208 17696c-87-14-118-23-118-33 0-8 162-933 360-2055l360-2040 175-656c96-361 173-657 172-658s-58 120-126 269c-69 150-201 436-294 637l-170 365-1055 1830c-581 1007-1057 1832-1058 1834-4 5-223-122-220-128 2-3 474-821 1050-1818 575-996 1046-1814 1046-1817 0-5 132-196 601-871 107-154 198-286 203-293 5-8-212 208-480 478l-489 492-1545 1296c-850 712-1552 1301-1561 1309-15 12-26 3-99-82-46-53-79-100-74-104 5-5 695-583 1534-1286s1538-1290 1553-1306c15-15 277-202 581-416 305-213 553-389 552-390-1-2-108 47-237 108s-412 194-629 296l-395 185-2030 739c-1116 407-2034 738-2040 735-7-2-30-54-52-114-35-97-38-112-24-117 118-46 4067-1479 4121-1495 41-13 359-101 705-196 347-95 626-173 620-173-5-1-307 27-670 61l-660 63-2067 2-2068 3v-125-125h2012c1106 0 2009-2 2007-4s-904-163-2004-356c-1100-194-2003-355-2007-359-7-6 26-229 36-238 3-3 3811 664 4016 703 14 3-891-329-2010-737s-2037-743-2040-746c-2-2 14-57 37-121 28-79 46-116 55-114 7 2 928 337 2047 744l2033 740 632 290c347 160 640 295 651 300 11 6-221-232-516-528l-536-539-1269-1513c-698-833-1270-1519-1271-1525-1-7 39-47 90-89 86-71 93-75 108-60 9 9 589 700 1288 1535 700 834 1274 1517 1277 1517s-6-19-20-42c-255-439-2056-3563-2056-3567s26-21 58-39c31-17 80-45 108-62l51-30 1038 1800c572 989 1041 1798 1042 1796 2-2-325-906-727-2010-401-1103-730-2009-730-2014 0-10 224-91 232-83 4 3 341 924 749 2046l742 2040 134 485c73 267 154 563 180 657 25 95 48 172 49 170 2-1-24-299-56-662l-60-660v-2047-2048h125 125l2 2010 3 2010 354-2011 355-2011 30 6c164 28 216 40 216 48 0 5-158 903-350 1995-193 1092-349 1990-348 1995 2 5 334-899 737-2009 404-1110 736-2020 738-2023 5-5 215 68 226 79 5 5-325 924-732 2042s-739 2034-738 2035 470-809 1041-1799c572-991 1041-1804 1042-1806 2-1 52 25 112 59l110 63-53 91c-30 50-501 867-1049 1816-547 949-1030 1777-1073 1840s-223 324-401 580l-323 465 538-536 538-536 1508-1264c829-695 1511-1265 1516-1267 9-3 153 165 155 182 0 7-690 592-1534 1301-844 708-1537 1290-1540 1293s6-1 20-9c133-80 3591-2071 3597-2072 4 0 36 48 70 106 44 76 58 108 50 115-7 5-814 471-1795 1037-980 566-1781 1029-1779 1031 1 1 904-325 2005-726 1102-401 2011-731 2019-732 12-2 27 27 58 112 24 63 40 118 37 121-4 3-915 336-2024 739-1110 403-2017 735-2015 736 1 2 897-155 1990-348 1094-192 1990-348 1992-346 6 5 47 239 43 243-2 1-903 161-2003 354-1100 194-2014 356-2032 361-17 4-327 34-688 66s-648 62-638 65c10 4 315 33 678 63l660 56 2020 356c1111 196 2021 357 2021 358 1 0-8 56-19 124l-21 124-46-7c-25-4-934-164-2020-355-1086-192-1975-348-1976-347s914 335 2033 742 2036 742 2038 745-15 58-38 122l-41 116-50-18c-58-20-3935-1432-3981-1450-16-6-25-7-20-2 6 5 816 474 1800 1042 985 568 1794 1036 1799 1040 13 12-106 221-122 215-7-3-817-469-1800-1036-983-568-1791-1034-1797-1037-31-15 174 158 1545 1308 828 694 1506 1265 1508 1269 3 9-145 186-156 186-5 0-690-571-1523-1270-832-698-1527-1281-1544-1295-16-14 20 34 80 105 493 585 2481 2958 2483 2964 3 9-173 161-186 161-5 0-580-681-1278-1512-698-832-1289-1536-1314-1563-25-28-222-304-439-613s-396-561-397-559c-2 2 70 273 160 603 90 329 173 637 185 684 21 83 734 4120 729 4125-5 4-241 45-243 42-1-1-161-908-356-2015l-354-2012-3 2015-2 2015h-125-125v-2022c0-1112-2-2019-4-2017-3 2-163 902-356 1999s-354 2004-358 2015l-7 21z"/></g></svg>